<svg width="26" height="26" viewBox="0 0 26 26" fill="none" xmlns="http://www.w3.org/2000/svg">
<path fill-rule="evenodd" clip-rule="evenodd" d="M0.876953 13.377C0.876953 10.0618 2.19391 6.88238 4.53812 4.53818C6.88232 2.19397 10.0617 0.877014 13.377 0.877014C16.6922 0.877014 19.8716 2.19397 22.2158 4.53818C24.56 6.88238 25.877 10.0618 25.877 13.377C25.877 16.6922 24.56 19.8716 22.2158 22.2158C19.8716 24.5601 16.6922 25.877 13.377 25.877C10.0617 25.877 6.88232 24.5601 4.53812 22.2158C2.19391 19.8716 0.876953 16.6922 0.876953 13.377ZM13.377 2.67001C11.3016 2.67008 9.27107 3.27327 7.53228 4.4062C5.79349 5.53913 4.42142 7.15297 3.583 9.05138C2.74457 10.9498 2.47592 13.0509 2.80973 15.0992C3.14355 17.1475 4.06543 19.0547 5.46324 20.5886C6.31172 19.2593 7.48165 18.1654 8.86487 17.408C10.2481 16.6505 11.7999 16.2541 13.377 16.2552C14.954 16.2541 16.5058 16.6505 17.889 17.408C19.2723 18.1654 20.4422 19.2593 21.2907 20.5886C22.6885 19.0547 23.6104 17.1475 23.9442 15.0992C24.278 13.0509 24.0093 10.9498 23.1709 9.05138C22.3325 7.15297 20.9604 5.53913 19.2216 4.4062C17.4828 3.27327 15.4523 2.67008 13.377 2.67001ZM19.9487 21.8305C19.2813 20.6791 18.3227 19.7234 17.1692 19.0595C16.0157 18.3957 14.7079 18.0469 13.377 18.0482C12.046 18.0469 10.7382 18.3957 9.58469 19.0595C8.43118 19.7234 7.4726 20.6791 6.80516 21.8305C8.68278 23.2942 10.9962 24.0875 13.377 24.084C15.8532 24.084 18.1331 23.2423 19.9487 21.8305ZM8.94165 11.4991C8.94165 10.3228 9.40894 9.19464 10.2407 8.36286C11.0725 7.53108 12.2006 7.06379 13.377 7.06379C14.5533 7.06379 15.6814 7.53108 16.5132 8.36286C17.345 9.19464 17.8123 10.3228 17.8123 11.4991C17.8123 12.6754 17.345 13.8035 16.5132 14.6353C15.6814 15.4671 14.5533 15.9344 13.377 15.9344C12.2006 15.9344 11.0725 15.4671 10.2407 14.6353C9.40894 13.8035 8.94165 12.6754 8.94165 11.4991ZM13.377 8.85678C13.03 8.85678 12.6864 8.92513 12.3658 9.05792C12.0452 9.1907 11.7539 9.38533 11.5086 9.6307C11.2632 9.87606 11.0686 10.1673 10.9358 10.4879C10.803 10.8085 10.7346 11.1521 10.7346 11.4991C10.7346 11.8461 10.803 12.1897 10.9358 12.5103C11.0686 12.8308 11.2632 13.1221 11.5086 13.3675C11.7539 13.6128 12.0452 13.8075 12.3658 13.9403C12.6864 14.0731 13.03 14.1414 13.377 14.1414C14.0777 14.1414 14.7498 13.863 15.2453 13.3675C15.7409 12.872 16.0193 12.1999 16.0193 11.4991C16.0193 10.7983 15.7409 10.1262 15.2453 9.6307C14.7498 9.13517 14.0777 8.85678 13.377 8.85678Z" fill="white"/>
</svg>
